<?xml version="1.0" standalone="no"?>
<!DOCTYPE svg PUBLIC "-//W3C//DTD SVG 20010904//EN"
 "http://www.w3.org/TR/2001/REC-SVG-20010904/DTD/svg10.dtd">
<svg version="1.0" xmlns="http://www.w3.org/2000/svg"
 width="152.000000pt" height="152.000000pt" viewBox="0 0 152.000000 152.000000"
 preserveAspectRatio="xMidYMid meet">
<metadata>
Created by potrace 1.11, written by Peter Selinger 2001-2013
</metadata>
<g transform="translate(0.000000,152.000000) scale(0.100000,-0.100000)"
fill="#000000" stroke="none">
<path d="M0 760 l0 -760 760 0 760 0 0 760 0 760 -760 0 -760 0 0 -760z m913
383 l47 -22 0 -85 c0 -81 -1 -85 -27 -104 -43 -29 -62 -35 -147 -41 -50 -4
-81 -11 -84 -18 -2 -8 5 -13 17 -13 23 0 25 -11 15 -72 -5 -28 -12 -38 -28
-40 -17 -2 -22 -13 -29 -57 -8 -60 2 -81 37 -81 38 0 116 -31 116 -46 0 -12
-37 -14 -215 -14 -187 0 -215 2 -215 15 0 9 13 24 30 33 16 9 34 28 39 42 14
35 49 238 43 245 -3 3 -40 5 -82 5 -46 0 -81 5 -88 12 -13 13 -18 249 -5 262
4 4 125 6 268 4 243 -3 263 -4 308 -25z m221 -39 c9 -8 16 -19 16 -24 0 -5 46
-11 103 -12 l102 -3 0 -30 0 -30 -102 -3 c-57 -1 -103 -7 -103 -12 0 -25 -34
-40 -91 -40 l-59 0 0 85 0 85 59 0 c41 0 65 -5 75 -16z m-306 -681 l-3 -88
-210 0 -210 0 -3 88 -3 87 216 0 216 0 -3 -87z"/>
<path d="M380 1095 c0 -13 31 -15 220 -15 189 0 220 2 220 15 0 13 -31 15
-220 15 -189 0 -220 -2 -220 -15z"/>
</g>
</svg>
